<svg width="297" height="300" viewBox="0 0 297 300" fill="none" xmlns="http://www.w3.org/2000/svg">
<path d="M283.297 88.5851C289.662 102.417 293.67 116.702 295.639 131.599C297.249 143.778 297.277 156 296.517 168.198C295.527 184.084 290.781 199.013 284.082 213.396C278.461 225.465 271.285 236.491 262.717 246.635C261.935 247.561 261.743 248.307 262.151 249.521C264.387 256.178 260.141 260.852 253.257 259.313C252.023 259.037 251.235 259.307 250.363 260.094C239.366 270.012 227.514 278.686 214.038 284.979C212.833 285.542 212.159 286.307 211.839 287.739C210.68 292.924 205.792 295.168 201.006 292.723C199.495 291.951 198.205 291.933 196.659 292.427C187.844 295.242 178.901 297.383 169.684 298.575C151.606 300.914 133.691 300.535 115.95 296.228C87.7507 289.383 62.9017 276.431 42.5461 255.421C41.4039 254.242 40.4375 253.597 38.6047 254.357C35.8251 255.51 33.0357 254.918 30.8834 252.765C28.5791 250.46 27.9617 247.445 29.2077 244.535C30.0877 242.481 29.532 241.197 28.4135 239.673C17.3272 224.56 9.69147 207.783 4.74013 189.767C2.04354 179.955 0.723991 169.912 0.213698 159.738C-0.667846 142.162 1.13355 124.895 6.44652 108.127C13.3872 86.2223 24.4562 66.6314 40.4116 49.964C41.7562 48.5594 42.2987 47.3476 41.9383 45.2569C40.8993 39.2282 45.7271 35.0897 52.0658 36.4729C53.6591 36.8207 54.7223 36.6023 55.9749 35.6178C74.2152 21.281 94.5468 11.4083 117.404 6.99669C119.261 6.63831 120.496 5.98526 121.38 4.01051C123.377 -0.454871 130.18 -1.39368 133.821 2.22112C135.185 3.57505 136.516 4.07495 138.34 3.93347C150.569 2.98485 162.77 3.47409 174.845 5.50684C208.588 11.1875 236.733 27.1398 259.686 52.4343C269.431 63.1741 277.173 75.2298 283.297 88.5851ZM56.9666 163.217C58.0015 165.212 59.0665 167.191 60.0665 169.202C67.4111 183.976 76.0571 197.942 85.9384 211.148C86.7489 212.231 87.4652 212.933 89.0328 212.58C91.8229 211.953 94.5413 212.698 96.5972 214.543C98.4639 216.218 99.7664 215.775 101.497 214.547C110.513 208.149 119.271 201.424 127.846 194.444C145.009 180.475 161.254 165.497 177.126 150.094C178.624 148.641 179.015 147.756 177.35 145.999C174.344 142.828 174.027 137.764 176.582 134.28C178.002 132.343 177.504 131.184 176.162 129.645C170.374 123.003 164.569 116.387 158.341 110.143C142.795 94.5592 125.986 80.5748 107.248 68.956C104.861 67.4764 103.056 67.3429 100.409 68.569C94.6757 71.2252 90.6246 74.9709 87.4028 80.6353C72.7426 106.41 62.2247 133.638 56.9666 163.217ZM151.303 54.2009C148.197 53.7555 145.098 53.2403 141.981 52.8919C140.211 52.694 138.433 52.624 136.676 53.3448C129.699 56.207 122.665 58.9309 115.707 61.8375C113.377 62.8109 110.882 63.5494 108.823 65.1897C109.621 66.3619 110.701 66.8639 111.676 67.484C125.976 76.5794 139.128 87.1334 151.553 98.6463C161.658 108.01 171.205 117.881 179.869 128.599C180.629 129.539 181.346 130.298 182.803 129.826C185.842 128.843 188.688 129.572 191.234 131.349C192.392 132.157 193.059 131.919 193.946 130.956C205.412 118.524 216.263 105.578 226.547 92.1508C227.491 90.9182 227.646 89.9307 226.961 88.504C225.759 86 225.369 83.2797 226.524 80.667C227.318 78.8705 226.689 77.9984 225.161 77.2956C224.428 76.9582 223.734 76.5364 223.011 76.1741C200.487 64.8827 176.627 57.9532 151.303 54.2009ZM212.276 190.067C207.188 176.94 200.679 164.555 193.091 152.704C191.379 150.029 189.875 147.984 186.405 149.772C186.041 149.959 185.462 149.997 185.086 149.846C182.866 148.953 181.617 150.303 180.248 151.7C163.557 168.736 145.657 184.433 127.218 199.529C119.079 206.192 110.763 212.627 102.012 218.464C100.076 219.756 100.93 221.26 100.977 222.739C101.02 224.102 102.162 224.049 103.167 224.157C117.391 225.684 131.658 226.011 145.95 225.795C147.924 225.765 149.516 225.342 151.09 224.012C158.45 217.792 165.219 210.962 171.96 204.1C177.13 198.837 181.941 193.247 186.697 187.612C187.683 186.444 188.561 186.432 189.682 187.246C190.864 188.105 190.342 188.831 189.618 189.686C179.317 201.839 168.5 213.487 156.394 223.883C156.046 224.182 155.358 224.369 155.723 225.244C159.457 225.228 163.166 224.573 166.893 224.124C167.892 224.004 168.08 223.171 168.458 222.464C170.387 218.859 174.315 218.097 177.121 220.953C178.229 222.081 179.226 222.289 180.677 222.062C192.927 220.148 204.981 217.352 216.968 214.217C219.04 213.675 219.393 212.708 218.909 210.716C217.231 203.801 215.096 197.046 212.276 190.067ZM242.404 133.352C242.367 122.558 241.296 111.832 240.089 101.126C239.416 95.1552 239.207 95.3325 233.545 93.8264C231.043 93.161 229.622 93.7513 228.127 95.7455C218.148 109.056 207.377 121.705 195.969 133.808C195.088 134.743 194.659 135.575 195.127 136.909C195.862 139.006 196.025 141.364 194.882 143.206C193.148 146.001 194.284 147.941 195.786 150.246C207.841 168.746 217.085 188.513 222.374 210.039C222.556 210.778 222.598 211.678 223.668 212.178C224.549 211.93 225.561 211.536 226.608 211.371C231.012 210.678 233.036 208.264 234.143 203.762C239.788 180.79 242.544 157.523 242.404 133.352ZM270.499 109.704C262.993 101.599 254.722 94.4189 245.577 88.4204C243.072 90.9652 241.39 93.2822 243.349 96.5074C243.953 97.5026 244.376 98.6082 244.976 99.6059C247.902 104.463 250.376 109.557 252.824 114.66C261.513 132.779 267.194 151.789 269.833 171.732C270.523 176.945 270.914 182.188 271.495 187.396C272.518 187.407 272.991 186.802 273.495 186.337C278.22 181.984 282.316 177.09 285.378 171.439C288.421 165.823 291.431 160.064 290.912 153.403C290.438 147.31 289.281 141.321 286.933 135.601C283.034 126.107 277.676 117.559 270.499 109.704ZM220.144 217.675C217.83 216.864 215.796 218.141 213.716 218.678C202.767 221.504 191.752 223.988 180.545 225.529C179.092 225.729 178.323 226.404 177.711 227.622C176.786 229.463 175.207 230.719 173.166 230.289C171.139 229.861 169.947 230.834 168.641 231.925C163.882 235.899 159.064 239.796 153.945 243.302C151.168 245.204 148.365 247.069 145.499 249.001C146.418 249.86 147.312 249.939 148.182 250.107C152.144 250.872 156.101 251.66 160.063 252.423C176.097 255.507 192.149 255.312 208.251 252.902C210.639 252.544 211.386 251.524 211.701 249.358C212.186 246.017 214.047 243.512 217.242 242.274C220.699 240.935 222.063 237.676 222.149 234.825C222.318 229.221 221.757 223.533 220.144 217.675ZM74.8296 51.7227C76.5652 52.4634 77.2045 51.1499 78.0187 50.0658C81.1447 45.9041 86.8477 44.3388 90.9327 47.284C94.0436 49.5269 96.9743 49.0538 100.289 48.9333C103.453 48.8182 105.26 47.442 107.104 45.0746C116.212 33.3797 126.559 22.9355 138.878 14.5691C139.341 14.2549 140.083 14.0304 139.905 13.1965C137.299 11.9674 135.131 11.1754 132.498 13.8477C129.741 16.6454 124.431 15.7495 122.228 12.5361C120.952 10.6749 119.561 10.4668 117.651 10.8413C95.5252 15.1781 75.8505 24.7534 58.1896 38.6544C57.4559 39.2319 56.6992 39.7465 57.1314 40.8479C57.9458 42.9234 57.6922 45.0712 57.4248 47.5135C63.2386 48.5256 68.8891 49.8474 74.8296 51.7227ZM96.6146 269.171C93.1382 269.691 89.6618 270.212 85.9535 270.767C86.6314 272.04 87.5098 272.511 88.305 273.059C93.6448 276.738 99.3847 279.7 105.22 282.486C119.209 289.165 134.048 292.775 149.342 294.785C160.784 296.288 171.492 294.306 181.397 288.304C182.008 287.934 182.971 287.808 182.974 286.7C181.02 286.237 179.089 285.84 177.19 285.322C159.296 280.433 143.165 271.95 128.232 261.078C126.688 259.954 125.463 259.603 123.633 260.469C115.156 264.48 106.205 267.083 96.6146 269.171ZM250.194 117.578C248.395 113.998 246.596 110.417 244.797 106.837C246.062 123.717 246.475 140.484 245.192 157.258C243.906 174.086 241.296 190.719 237 206.893C237.799 207.434 238.214 207.228 238.622 207.064C248.502 203.097 257.817 198.093 266.512 191.932C267.744 191.06 267.81 189.915 267.796 188.617C267.724 181.954 267.093 175.318 265.98 168.778C262.982 151.173 258.186 134.085 250.194 117.578ZM150.016 254.179C147.838 253.64 145.673 253.039 143.477 252.59C142.45 252.379 141.4 251.67 140.335 252.224C136.941 253.99 133.583 255.823 130.213 257.629C130.692 258.896 131.7 259.226 132.475 259.769C137.337 263.175 142.368 266.313 147.577 269.162C159.53 275.7 171.874 281.187 185.405 283.608C187.216 283.932 188.431 283.45 189.754 282.298C197.962 275.157 204.785 266.85 210.65 257.723C210.946 257.263 211.616 256.826 210.972 255.892C190.746 259.996 170.558 258.748 150.016 254.179ZM37.9143 107.96C38.1285 108.422 38.078 109.064 38.7514 109.216C38.9232 109.146 39.1256 109.121 39.24 109.008C40.4509 107.805 41.6581 106.598 42.847 105.373C55.4503 92.3902 69.4802 81.2301 85.4537 72.6987C89.3954 70.5935 91.5718 67.5332 93.3797 63.3796C92.7751 63.8024 92.4725 63.9873 92.1997 64.2088C86.3539 68.9545 77.0766 65.4721 76.3473 58.2707C76.1401 56.224 74.7553 56.4248 73.3617 56.7576C60.4667 59.8373 48.5388 65.0654 37.7533 72.8341C36.9221 73.4328 36.3098 74.0373 36.1932 75.1767C35.079 86.0676 35.4677 96.875 37.9143 107.96ZM108.49 244.366C104.869 240.753 101.271 237.117 97.6106 233.545C96.7401 232.695 95.8381 231.849 94.3028 232.477C90.8619 233.885 87.5683 233.253 84.6535 231.086C83.4243 230.173 82.5054 230.166 81.2895 230.949C76.0033 234.353 70.4658 237.322 64.7846 239.991C62.7824 240.932 62.6755 241.887 63.5565 243.705C67.433 251.708 72.6383 258.721 78.7833 265.114C80.4411 266.838 82.1347 267.539 84.4536 267.354C92.7166 266.696 100.743 264.884 108.622 262.411C113.281 260.948 117.923 259.383 122.714 257.042C117.695 252.881 113.022 248.982 108.49 244.366ZM38.0966 124.196C37.448 122.512 37.5845 120.512 36.1474 118.979C35.6803 119.386 35.2948 119.63 35.0264 119.968C28.5258 128.156 22.7824 136.821 18.3723 146.338C17.7974 147.578 18.1271 148.584 18.6117 149.667C25.7803 165.676 35.6224 179.833 48.0542 192.187C48.6275 192.756 49.0859 193.734 50.3412 193.334C50.5923 184.723 51.1861 176.124 52.6825 167.636C53.1341 165.074 52.7161 162.969 51.7036 160.667C46.5296 148.908 41.6363 137.034 38.0966 124.196ZM128.175 48.6241C130.324 48.7252 132.468 48.7665 134.613 49.0972C136.923 49.4533 139.203 49.2202 141.495 48.4365C148.372 46.0852 155.296 43.8674 162.229 41.6875C166.593 40.3156 170.994 39.0552 175.406 37.8454C177.303 37.3251 177.414 35.8273 177.797 34.3421C178.173 32.8803 177.123 32.4327 176.247 31.8628C167.053 25.8803 157.621 20.3352 147.567 15.8846C145.7 15.0582 144.309 15.1635 142.612 16.2842C131.953 23.3231 122.771 31.9762 114.543 41.693C112.9 43.6329 111.323 45.628 109.372 48.0174C115.886 48.3861 121.805 47.906 128.175 48.6241ZM80.9816 84.9737C82.4226 82.3636 83.8636 79.7535 85.6502 76.5172C84.4665 77.11 83.9748 77.316 83.5228 77.5883C67.3949 87.3047 53.0771 99.2067 40.5001 113.226C39.437 114.411 39.4548 115.523 39.823 116.931C43.1946 129.829 47.6119 142.356 53.0164 154.536C53.2666 155.1 53.3176 156 54.5558 155.993C59.6815 131.115 68.516 107.573 80.9816 84.9737ZM246.46 239.8C251.556 236.947 256.398 233.704 261.147 230.308C262.598 229.271 263.619 228.073 264.036 226.285C266.16 217.184 267.809 208.022 267.815 198.636C267.816 197.808 268.169 196.823 267.137 196.124C266.533 196.449 265.872 196.732 265.29 197.13C256.574 203.084 247.198 207.743 237.295 211.334C235.675 211.922 235.131 213.059 234.702 214.459C232.651 221.16 230.166 227.701 227.494 234.175C225.063 240.066 225.217 240.465 229.564 245.02C230.709 246.22 231.682 246.391 233.09 245.795C237.467 243.942 241.91 242.24 246.46 239.8ZM248.146 68.7029C246.794 70.7169 245.467 72.7477 244.082 74.7386C243.267 75.9097 243.08 76.9 244.182 78.0819C245.232 79.2076 245.954 80.6735 245.905 82.2304C245.844 84.1581 246.889 85.1092 248.322 86.0569C256.895 91.7286 264.698 98.3339 271.77 105.794C275.025 109.227 278.004 112.904 281.02 116.974C282.038 114.305 281.788 111.881 281.761 109.507C281.682 102.311 281.612 94.9865 278.738 88.315C273.368 75.8496 265.88 64.661 256.694 54.6479C256.036 53.9301 255.472 52.9202 254.148 52.827C254.256 58.8789 251.333 63.6354 248.146 68.7029ZM34.4672 114.965C35.3288 114.105 35.3526 113.138 35.069 111.989C32.5149 101.631 31.6957 91.1088 32.1401 80.4662C32.1782 79.5539 32.5685 78.5235 31.9792 77.8878C28.825 80.869 25.5192 83.643 22.6307 86.7997C17.2965 92.6291 12.8999 99.1628 11.5574 107.104C9.66463 118.299 11.2555 129.264 14.8289 139.968C15.0846 140.734 15.195 141.702 16.3026 142.175C21.0992 132.334 27.1733 123.473 34.4672 114.965ZM56.1517 235.119C54.2223 229.127 52.5441 223.058 51.8841 216.793C51.6087 214.179 50.5154 212.872 48.1238 211.97C45.6219 211.026 43.3159 209.561 40.9265 208.32C36.8098 206.181 33.0291 203.485 29.2519 200.843C28.3902 201.839 28.3532 202.773 28.2251 203.628C26.5848 214.592 28.3859 225.085 32.6117 235.237C33.6049 237.623 34.7042 239.809 37.8243 239.928C38.6383 239.959 39.7092 240.469 40.1779 241.113C42.469 244.26 45.2905 243.683 48.3058 242.598C50.0763 241.96 51.9101 241.502 53.6943 240.9C57.7072 239.546 57.7019 239.531 56.1517 235.119ZM165.816 21.2057C170.02 23.8001 174.255 26.3465 178.409 29.0182C179.667 29.8275 180.595 30.0192 182.049 29.2805C185.957 27.2961 189.786 27.7606 193.005 30.7805C194.423 32.1103 195.777 32.1295 197.428 31.7507C201.891 30.7263 206.372 29.8176 210.981 29.7645C211.944 29.7534 212.948 29.763 213.751 29.0925C213.819 28.4012 213.29 28.1073 212.929 27.746C205.959 20.7727 197.996 15.4227 188.456 12.5777C181.307 10.4457 174.087 8.55266 166.632 8.14607C160.639 7.81931 155.06 9.71 149.239 12.7079C155.071 15.4893 160.409 17.9927 165.816 21.2057ZM228.137 51.1327C225.832 45.6484 222.828 40.5558 219.595 35.5764C218.323 33.6169 216.662 32.7647 214.421 32.9201C209.145 33.2861 203.869 33.6928 198.722 34.9939C197.609 35.2752 195.827 35.0712 195.882 36.8195C195.946 38.8468 194.415 40.871 196.862 42.9292C207.452 51.8379 217.269 61.5579 226.035 72.3047C226.712 73.1353 227.524 73.8577 228.291 74.6132C230.395 76.687 232.117 74.4244 233.922 73.9711C235.622 73.5444 234.616 72.0483 234.389 71.0103C232.93 64.333 230.833 57.8523 228.137 51.1327ZM144.162 229.321C130.888 229.465 117.627 229.394 104.41 227.829C102.818 227.641 100.258 226.562 99.6105 228.694C98.9122 230.992 101.47 231.85 103.17 232.734C114.321 238.535 125.729 243.727 137.783 247.41C139.388 247.901 140.638 247.816 142.072 246.926C150.324 241.804 158.146 236.1 165.532 229.797C166.1 229.312 166.929 228.961 166.95 227.808C159.505 228.552 152.129 229.376 144.162 229.321ZM194.419 60.5464C202.896 63.3268 211.068 66.8945 219.709 70.6574C212.185 61.3752 203.879 53.6983 195.342 46.249C193.899 44.9903 192.684 44.6768 190.817 45.7379C186.597 48.1373 181.715 46.9134 178.998 42.8136C177.916 41.181 176.853 41.0095 175.202 41.5078C166.696 44.0753 158.171 46.5793 149.666 49.1475C149.1 49.3182 148.297 49.3133 147.952 50.1601C163.663 52.4017 179.002 55.6624 194.419 60.5464ZM242.34 262.125C244.178 260.542 246.013 258.956 247.856 257.379C248.948 256.445 249.417 255.46 249.141 253.864C248.491 250.107 250.321 247.234 253.905 245.796C257.017 244.547 260.376 239.276 260.329 235.559C259.883 235.78 259.46 235.924 259.112 236.173C251.237 241.797 242.696 246.127 233.577 249.323C232.372 249.745 231.965 250.481 231.897 251.726C231.655 256.149 229.678 259.443 225.391 261.046C224.482 261.386 223.781 261.862 223.477 262.778C221.36 269.144 218.346 275.048 214.348 280.488C224.428 275.662 233.603 269.575 242.34 262.125ZM57.7006 201.272C64.1652 207.125 71.0498 212.458 78.0475 217.647C78.8691 218.256 79.6664 219.283 80.8807 218.829C82.6736 218.157 83.7453 214.36 82.6071 212.788C73.6438 200.402 65.1825 187.706 58.43 173.939C57.8556 172.768 57.5163 171.413 56.3775 170.576C55.6645 170.986 55.7393 171.663 55.6429 172.256C54.5157 179.181 54.1042 186.154 53.9072 193.168C53.812 196.554 54.623 199.12 57.7006 201.272ZM232.822 53.0075C235.729 59.677 236.643 67.0306 239.637 74.3318C244.126 68.2761 248.441 62.9716 250.271 56.2305C250.97 53.6528 250.584 51.1033 249.102 48.7337C243.608 39.9484 235.168 35.895 225.457 33.8779C224.747 33.7304 223.919 33.3559 223.018 34.0614C226.952 39.882 230.237 46.0333 232.822 53.0075ZM271.386 193.713C271.832 203.592 270.284 213.309 268.93 223.112C276.18 216.518 282.361 209.263 285.087 199.696C286.908 193.306 288.141 186.767 289.342 180.232C289.979 176.764 290.519 173.278 291.102 169.8C285.925 178.39 280.092 186.153 272.123 192.148C271.796 192.395 271.659 192.894 271.386 193.713ZM20.671 162.186C19.0858 159.13 17.5006 156.075 15.6386 152.486C13.2642 157.737 11.6415 162.532 10.5124 167.51C10.0976 169.339 10.2076 171.056 11.0266 172.752C13.1423 177.132 15.4846 181.384 18.5915 185.14C20.8969 187.927 23.0564 190.9 26.4245 193.065C27.5729 188.538 28.8148 184.334 30.4072 180.253C31.0002 178.733 30.771 177.609 29.8039 176.309C26.532 171.913 23.5452 167.32 20.671 162.186ZM10.2155 194.324C13.8023 206.842 18.8827 218.661 26.4839 229.339C23.8918 219.797 23.3379 210.198 25.1639 200.532C25.5777 198.342 24.9233 197.043 23.3954 195.661C18.0958 190.867 13.6827 185.347 10.2746 179.039C9.97601 178.486 9.7935 177.718 8.85911 177.517C8.39297 183.125 8.90802 188.534 10.2155 194.324ZM43.3748 249.084C42.997 250.319 43.746 251.097 44.464 251.932C50.5646 259.027 58.1261 263.756 67.2175 265.964C69.7432 266.577 72.3013 267.185 75.4998 266.976C68.8295 259.864 63.4935 252.478 59.6465 244.087C59.0754 242.841 58.2051 242.999 57.1939 243.418C53.4567 244.967 49.5793 246.077 45.6538 247.018C44.6393 247.262 43.7363 247.532 43.3748 249.084ZM56.7168 223.931C57.5886 227.967 58.7863 231.905 60.1986 235.784C60.7369 237.262 61.4603 237.771 63.004 236.983C68.4348 234.211 73.832 231.386 79.0499 228.222C80.3647 227.425 80.8706 226.467 80.6983 224.904C80.5104 223.201 79.2736 223.046 78.0846 222.686C72.8573 221.104 67.6348 219.506 62.4021 217.942C60.1295 217.263 58.084 215.842 55.4623 215.704C55.5371 218.455 56.0533 220.974 56.7168 223.931ZM35.8782 184.269C35.2546 183.674 34.9277 182.714 33.6064 182.585C31.5694 186.544 30.794 190.957 29.7541 195.276C29.5077 196.3 30.2603 196.877 31.0075 197.456C35.7028 201.093 40.604 204.404 45.9541 207.01C47.4408 207.734 48.7856 208.864 50.6935 208.857C51.2284 206.602 50.2799 204.498 50.4996 202.378C50.7011 200.433 49.9423 199.033 48.4955 197.682C44.0977 193.575 39.9313 189.23 35.8782 184.269ZM72.0135 274.382C90.4366 285.247 109.981 292.917 131.826 295.356C131.09 295.076 130.77 294.911 130.431 294.831C112.395 290.6 95.6661 283.54 81.0194 271.967C80.3104 271.407 79.5662 270.921 78.5987 270.923C73.9195 270.934 69.3672 269.897 63.9253 269.057C66.9513 271.052 69.3167 272.612 72.0135 274.382ZM55.5572 58.8846C59.9737 57.0208 64.5678 55.6393 69.1028 53.8878C63.2853 52.4794 57.6737 49.836 51.5268 51.9489C50.5662 52.2791 49.5667 52.3226 48.6085 51.9943C46.1087 51.138 44.4772 52.24 43.1959 54.2708C40.7755 58.107 39.147 62.2786 37.9409 66.6293C37.8243 67.0496 37.7662 67.5244 38.5837 67.9637C43.8006 64.6649 49.2358 61.365 55.5572 58.8846ZM197.195 280.106C196.026 281.511 194.27 282.399 193.322 284.356C195.704 284.79 197.483 285.052 198.883 282.519C200.476 279.634 203.92 278.542 207.082 279.696C208.829 280.334 209.74 279.723 210.778 278.583C214.206 274.819 216.68 270.495 218.546 265.778C220.079 261.905 220.078 262.02 216.436 259.993C214.772 259.067 213.895 259.085 212.801 260.835C208.46 267.774 203.39 274.153 197.195 280.106ZM8.99077 159.698C10.3164 156.167 11.6175 152.627 12.9839 149.112C13.3531 148.163 13.6186 147.318 13.1964 146.283C9.86204 138.114 8.20639 129.541 7.24439 120.584C3.42972 132.64 3.92276 156.487 8.08903 162.418C8.37318 161.601 8.63675 160.843 8.99077 159.698ZM125.336 52.034C119.51 51.4163 113.667 51.7583 107.83 51.7538C107.326 51.7534 106.646 51.8726 106.344 52.2055C104.008 54.7728 102.006 57.5806 100.263 60.4364C102.409 62.7214 104.37 63.0512 106.848 61.7748C109.475 60.422 112.301 59.4576 115.039 58.322C119.533 56.4588 124.026 54.5943 129.234 52.434C127.54 52.2685 126.662 52.1827 125.336 52.034ZM291.52 127.983C290.17 119.688 288.199 111.556 285.091 103.684C285.775 108.506 284.992 113.264 284.776 118.039C284.705 119.614 283.825 121.171 284.72 122.776C288.319 129.223 291.338 135.912 293.219 143.114C292.679 138.226 292.139 133.338 291.52 127.983ZM119.706 244.519C116.524 243.151 113.342 241.783 109.465 240.117C114.744 245.811 120.021 250.364 125.527 254.668C126.071 255.093 126.575 255.286 127.248 255.003C130.027 253.833 132.757 252.573 135.69 250.7C130.212 248.59 125.147 246.639 119.706 244.519ZM57.7691 206.077C56.6729 205.25 55.8209 204.044 54.1445 203.595C54.2855 205.525 54.5024 207.2 54.5016 208.875C54.5009 210.33 55.0884 211.187 56.3917 211.773C60.6959 213.707 65.1393 215.217 69.9064 216.119C65.9541 212.857 62.0018 209.596 57.7691 206.077ZM28.8055 69.9368C26.5815 73.5605 23.9861 76.976 22.5899 81.1084C25.7135 78.13 28.8512 75.2085 32.2579 72.5955C32.8667 72.1286 33.0727 71.4842 33.2587 70.7623C34.1458 67.3202 35.0934 63.8938 36.114 60.1117C33.6194 63.4596 31.3247 66.5392 28.8055 69.9368ZM229.876 214.034C228.422 214.481 226.967 214.923 225.514 215.375C224.486 215.694 223.72 216.236 223.905 217.478C224.431 221.006 224.969 224.533 225.502 228.06C227.548 223.873 229.077 219.669 230.547 215.444C230.705 214.989 231.305 214.215 229.876 214.034ZM225.536 28.3841C220.916 25.4297 216.129 22.7993 210.944 20.8395C213.349 23.5405 215.934 25.9994 218.498 28.4812C219.077 29.0418 219.561 29.7576 220.464 29.7404C223.111 29.69 225.702 30.1309 228.411 30.4132C227.559 29.8039 226.708 29.1947 225.536 28.3841ZM271.511 228.724C272.666 226.821 273.82 224.919 275.071 222.856C269.684 227.053 264.573 231.208 264.154 238.643C267.035 235.852 269.02 232.338 271.511 228.724ZM150.838 7.19393C146.046 7.19393 141.253 7.19393 136.46 7.19393C141.851 11.3029 147.106 11.398 152.219 7.13737C151.855 7.15735 151.513 7.17616 150.838 7.19393ZM187.658 288.256C185.403 289.786 183.148 291.315 180.601 293.043C186.013 291.713 191.185 290.841 195.941 288.453C193.252 288.8 190.712 286.873 187.658 288.256ZM98.2816 56.8668C99.1103 55.4675 100.424 54.3383 100.866 52.6057C95.6334 52.5743 95.2258 53.1434 96.4774 58.4534C97.3127 58.3948 97.5619 57.6257 98.2816 56.8668ZM4.48811 165.519C4.39312 168.561 4.95972 171.525 5.46578 174.585C6.86673 171.379 6.14058 168.462 4.48811 165.519Z" fill="#F97016"/>
</svg>
